/* XPM */
static char * stickpr_xpm[] = {
"17 17 3 1",
" 	c None",
".	c #121212",
"+	c #BEBEBE",
".................",
".................",
".................",
".................",
".................",
".................",
"......+++++......",
"......+++++......",
"......+++++......",
"......+++++......",
"......+++++......",
".................",
".................",
".................",
".................",
".................",
"................."};
